<svg class="icon-lobster" xmlns="http://www.w3.org/2000/svg" width="320" height="320" viewBox="0 0 320 320">
  <path class="cls-1" d="M236.9,276.312s14.2,10.851,26.621,6.376c24.978-9,30.083-27.63,33.011-37.193s-8.519-22.316-8.519-22.316l4.26-6.376a115.9,115.9,0,0,1-18.1-12.752c-8.4-7.146-17.472-17.616-25.557-23.379-10.852-7.735-15.973-6.376-15.973-6.376s-4.414-8.6-10.648-12.751c-4.739-3.153-11.714-2.126-11.714-2.126,0.205,0.047,4.8-2.135,6.325-4.694a14.4,14.4,0,0,1,3.259-3.807,183.836,183.836,0,0,0-7.454-17,77.49,77.49,0,0,0-7.454-11.689s6.878-2.125,11.713-2.125a21.063,21.063,0,0,1,6.389,1.063s-1.964-9.1-5.324-20.191c-3.556-11.739-9.584-25.5-9.584-25.5s4.673,0.183,7.454,2.125c2.532,1.768,4.26,6.376,4.26,6.376s1.156-2.742,0-10.627c-0.741-5.052-3.129-10.252-4.26-15.94a132.848,132.848,0,0,1-2.129-17s-25.436-8.425-51.646-8.4c-27.265.025-55.345,8.5-55.345,8.5a132.748,132.748,0,0,1-2.129,17c-1.13,5.685-3.517,10.884-4.257,15.934-1.156,7.881,0,10.622,0,10.622s1.727-4.606,4.257-6.374c2.78-1.942,7.451-2.124,7.451-2.124s-6.025,13.76-9.579,25.494c-3.359,11.085-5.322,20.182-5.322,20.182a21.068,21.068,0,0,1,6.386-1.062c4.833,0,11.708,2.124,11.708,2.124a77.39,77.39,0,0,0-7.451,11.685,183.757,183.757,0,0,0-7.45,17,14.382,14.382,0,0,1,3.257,3.806c1.526,2.557,6.117,4.738,6.322,4.692,0,0-6.972-1.027-11.708,2.124-6.232,4.147-10.643,12.747-10.643,12.747s-5.118-1.359-15.965,6.374c-8.081,5.76-17.15,16.226-25.544,23.369A115.838,115.838,0,0,1,27.723,216.83L31.98,223.2S20.539,235.95,23.466,245.51,31.495,273.7,56.46,282.689c12.417,4.473,26.608-6.374,26.608-6.374s20.447,5.695,34.059,4.249A21.587,21.587,0,0,0,133.092,271l2.129,3.187,2.129-4.249S146.663,288,161.829,288s20.765-18.064,20.765-18.064l2.129,4.25,2.13-3.188a23.111,23.111,0,0,0,10.1,7.442c6.7,2.429,16.294,2.122,16.294,2.122ZM47.945,239.137c-7.822-8.085-13.836-13.809-13.836-13.809s8.116,11.286,12.772,15.933S63.91,256.133,63.91,256.133,54.983,246.411,47.945,239.137Zm54.282-53.112c-4.336-7.126-14.9-9.56-14.9-9.56s8.4,3.442,12.772,10.622c4.669,7.675,5.322,19.12,5.322,19.12S106.924,193.746,102.227,186.025Zm-15.966,28.68C73.335,231.7,64.354,261.8,64.975,265.693S80.94,276.315,80.94,276.315,68.789,269.057,67.1,265.693s7.971-31.933,20.222-48.863c6.817-9.42,20.222-8.5,20.222-8.5S92.561,206.425,86.262,214.705Zm74.5-3.186c6.585-.074,21.287-1.063,21.287-1.063s-11.155.064-21.287,0c-11.261-.071-22.351,0-22.351,0S154.18,211.592,160.765,211.519Zm2.129-54.175a187.089,187.089,0,0,1,31.93,3.187s-16.535-5.059-31.93-5.311c-16.989-.278-33,5.311-33,5.311A199.513,199.513,0,0,1,162.894,157.344Zm31.93-38.24s-17.219-3.991-33-4.249a107.9,107.9,0,0,0-30.865,4.249,244.234,244.234,0,0,1,30.865-2.125A313.543,313.543,0,0,1,194.824,119.1ZM127.771,239.137c0.5,11.732,4.257,29.743,4.257,29.743s-2.176-20.1-2.132-31.979c0.05-13.79,3.153-18.09,3.2-17.947a13.193,13.193,0,0,0-2.951-5.321c-2.547-2.917-9.655-4.306-9.821-4.239,0,0,5.335,1.652,8.515,4.249a9.829,9.829,0,0,1,3.193,5.311S127.21,225.987,127.771,239.137ZM162.894,68.116c-27.407,0-37.252,6.373-37.252,6.373s18.374-4.522,37.252-4.249a211.111,211.111,0,0,1,36.187,4.249S190.3,68.116,162.894,68.116ZM189.26,212.571a13.193,13.193,0,0,0-2.951,5.321c0.043-.143,3.147,4.157,3.2,17.947,0.043,11.88-2.133,31.978-2.133,31.978s3.758-18.011,4.258-29.742c0.56-13.15-4.258-20.183-4.258-20.183a9.833,9.833,0,0,1,3.193-5.311c3.181-2.6,8.515-4.249,8.515-4.249C198.916,208.264,191.808,209.654,189.26,212.571Zm28.1-27.608c-4.637,7.721-3.152,20.182-3.152,20.182s0.644-11.446,5.254-19.12c4.312-7.181,12.609-10.623,12.609-10.623S221.644,177.837,217.364,184.963Zm16.617,29.923c-6.357-8.209-21.317-6.195-21.317-6.195s13.387-1.02,20.269,8.321c12.369,16.789,22.232,45.2,20.573,48.568s-13.745,10.695-13.745,10.695,15.281-6.823,15.872-10.711S247.025,231.731,233.981,214.886Zm37.475,24.274c-7.753,8.15-15.3,16.566-15.3,16.566s12.009-9.691,16.458-14.536S285.7,224.672,285.7,224.672,278.433,231.827,271.456,239.16Z"/>
</svg>
