<svg id="seed" xmlns="http://www.w3.org/2000/svg" width="320" height="320" viewBox="0 0 320 320">
<defs>
  </defs>
  <path class="seed" d="M120.39,53.56a4.579,4.579,0,0,0,3.045,1.816c1.008,0.131,2.239-.834,3.045-1.816a6.769,6.769,0,0,0,.913-1.514l0.3-1.817s-0.068-1.371-.219-2.266c-0.172-1.013.187-1.116,0.219-1.064a1.848,1.848,0,0,0,1.218-.3,2.461,2.461,0,0,0,.609-1.211h0.913l0.305,1.211,0.609-.3a3.134,3.134,0,0,1-.609,2.422,5.169,5.169,0,0,1-2.741.908l0.885,0.7,0.638,0.507s2.349-.784,2.74-1.514a3.468,3.468,0,0,0-.3-3.028,0.863,0.863,0,0,1-.305-0.605,2.256,2.256,0,0,1,.305-0.908l2.131-.3V46.6a0.674,0.674,0,0,0,.609,0,2.394,2.394,0,0,0,.609-0.605,5.054,5.054,0,0,1,1.523,3.028,6.243,6.243,0,0,1-1.523,3.33c0.12-.006,2.683-1.992,2.126-3.831a6.121,6.121,0,0,0-1.821-2.83l0.3-1.211a0.825,0.825,0,0,0,.609.3,2.4,2.4,0,0,0,.914-0.3,2.121,2.121,0,0,1,.609.908,5.919,5.919,0,0,1,0,1.816l0.913-.908c0.644-.092,2.2,1.46,2.132,3.028a8.934,8.934,0,0,1-.609,2.725s2.078-.978,1.827-2.725c-0.2-1.392-2.741-3.633-2.741-3.633V44.477a3.555,3.555,0,0,0,1.218.3,2.884,2.884,0,0,0,1.218-.3l0.609,2.119a1.157,1.157,0,0,1,.606-0.525,2.005,2.005,0,0,1,1.221-.08,12.484,12.484,0,0,1,1.218,2.119,9.438,9.438,0,0,1,.609,2.422,0.757,0.757,0,0,0,.609-0.3,2.04,2.04,0,0,0,0-.606,0.621,0.621,0,0,1,.3-0.3,25.044,25.044,0,0,0,2.132,3.027,42.275,42.275,0,0,1,3.654,4.239,12.925,12.925,0,0,1,2.131,5.147,23.868,23.868,0,0,0,.914,4.541A5.9,5.9,0,0,0,157.843,69a10.021,10.021,0,0,1-1.523-3.028,30.223,30.223,0,0,1-.913-5.147,20.4,20.4,0,0,0-1.827-3.936,39.948,39.948,0,0,0-3.35-4.238c-0.9-1.069-1.43-1.835-1.547-1.977a10.535,10.535,0,0,1-1.5-2.564s0.578-.8,1.827,0c0.724,0.465,1.438,1.963,2.132,2.725,0.572,0.629,1.052.683,4.872,0.908a20.692,20.692,0,0,1,3.958.3,2.027,2.027,0,0,1,.914.908,5.783,5.783,0,0,1,.913,1.211,35.963,35.963,0,0,1-.609,5.147c-0.2.911-.823,2.48-0.913,3.027-0.17,1.028.3,0.606,0.3,0.606a15.158,15.158,0,0,0,1.218-3.33,31.838,31.838,0,0,0,.609-4.844,13.566,13.566,0,0,1,1.827,1.817c0.448,0.535.94,1.1,1.522,1.816a7.019,7.019,0,0,1,1.218,1.816,5.187,5.187,0,0,1,0,1.514c0.018,0.945,0,1.514,0,1.514s0.564,0,.609-0.908c0.109-2.18.039-2.194-1.356-4.211-0.909-1.315-3.484-4.24-3.515-4.266V52.576a4.359,4.359,0,0,1,.3-1.438,78.527,78.527,0,0,1,5.481,6.055,6.829,6.829,0,0,1,1.522,3.027s0.386,0.3.305-.908c-0.03-.44-0.49-1.143-0.609-1.817a5.639,5.639,0,0,1,0-1.816,1.511,1.511,0,0,1,.609-0.3,2.983,2.983,0,0,1,.913,0,15.561,15.561,0,0,1,1.827,2.725c0.829,1.5,1.848,5.531,2.741,7.266,1.343,2.61,2.436,2.725,2.436,2.725a19.009,19.009,0,0,0-.305-5.147,50.228,50.228,0,0,0-1.81-5.726c-0.4-1.181-.626-2.146-0.626-2.146a15.212,15.212,0,0,1,2.132,2.119c1.014,1.2,2.194,3.01,3.045,3.936a3.272,3.272,0,0,0,1.218.908,3.028,3.028,0,0,0,0-3.028,43.868,43.868,0,0,0-4.872-6.963,10.791,10.791,0,0,0-1.218-2.119,1.172,1.172,0,0,0-.914-0.605,6.753,6.753,0,0,1-1.218-1.514c-0.533-.913-0.913-2.142-2.131-2.725-1.56-.746-3.535-0.574-5-0.552-0.937.014-1.7-.053-1.7-0.053l-1.522-1.211a1.367,1.367,0,0,1,.744-1.081,5.564,5.564,0,0,1,2.3-.736,14.974,14.974,0,0,1,6.09,1.211,13.276,13.276,0,0,1,2.132,1.817,18.029,18.029,0,0,0,2.436,1.514l-3.654-3.33,0.609-.3a3.406,3.406,0,0,0,1.218,1.211,10.649,10.649,0,0,0,2.436.908,16.693,16.693,0,0,1-2.132-1.211,0.614,0.614,0,0,1-.3-0.606s13.861,4.963,18.574,6.661c4.845,1.745,15.048,6.328,10.961,12.11a7.221,7.221,0,0,1-5.176,3.027,3.952,3.952,0,0,0,2.436-.605c1.109-.684,8.713-4.636-0.48-11.14-2.878-2.036-7.953-3.891-12-5.512-2.886-1.154-6.439-2.191-8.83-3.027-4.377-1.53-6.677-2.428-6.7-2.422,0,0-2.473-.786-4.263-1.514a15.679,15.679,0,0,1-2.436-1.211,48.953,48.953,0,0,1,5.176.605c2.3,0.411,5.489,1.143,6.4,1.211a88.779,88.779,0,0,0,10.657,0s-6.056.037-10.58-.391c-2.427-.23-4.879-0.948-7.385-1.425-2.159-.411-6.7-0.908-6.7-0.908a40.754,40.754,0,0,0,4.263-.605,12.583,12.583,0,0,0,2.74-.908s-2.469.3-4.263,0.3a5.737,5.737,0,0,1-1.827-.3V36a1.555,1.555,0,0,1-.913.3c-1.126.126-3.183,0.147-5.176,0.3-1.738.136-3.478,0.03-5.177,0.3a32.524,32.524,0,0,0-7.612,2.119,19.318,19.318,0,0,0-3.349.3,12.923,12.923,0,0,0-2.741.908s-7.071-1.053-11.875,1.514c-2.821,1.507-4.627,4.31-6.09,6.358C120.714,51.067,119.255,51.41,120.39,53.56Zm52.864,40.147a2.969,2.969,0,0,0,1.983,1.211,2.679,2.679,0,0,0,1.983-1.211,4.523,4.523,0,0,0,.594-1.009l0.2-1.211s-0.045-.914-0.143-1.511c-0.112-.675.121-0.744,0.143-0.709a1.18,1.18,0,0,0,.793-0.2,1.659,1.659,0,0,0,.4-0.807H179.8l0.2,0.807,0.4-.2a2.127,2.127,0,0,1-.4,1.615,3.308,3.308,0,0,1-1.784.606l0.576,0.469L179.2,91.89a4.624,4.624,0,0,0,1.785-1.009,2.357,2.357,0,0,0-.2-2.018,0.579,0.579,0,0,1-.2-0.4,1.53,1.53,0,0,1,.2-0.605l1.388-.2v1.413a0.431,0.431,0,0,0,.4,0,1.575,1.575,0,0,0,.4-0.4,3.392,3.392,0,0,1,.992,2.018,4.2,4.2,0,0,1-.992,2.22c0.078,0,1.747-1.328,1.385-2.554a4.087,4.087,0,0,0-1.186-1.886l0.2-.807a0.534,0.534,0,0,0,.4.2,1.539,1.539,0,0,0,.594-0.2,1.415,1.415,0,0,1,.4.606,4.039,4.039,0,0,1,0,1.211l0.595-.606a2.112,2.112,0,0,1,1.388,2.018,6.073,6.073,0,0,1-.4,1.816,2.013,2.013,0,0,0,1.19-1.816c-0.13-.928-1.785-2.422-1.785-2.422V87.651a2.277,2.277,0,0,0,.793.2,1.841,1.841,0,0,0,.793-0.2l0.4,1.413a0.76,0.76,0,0,1,.395-0.35,1.278,1.278,0,0,1,.8-0.054,8.372,8.372,0,0,1,.793,1.413,6.424,6.424,0,0,1,.4,1.615,0.489,0.489,0,0,0,.4-0.2,1.394,1.394,0,0,0,0-.4,0.407,0.407,0,0,1,.2-0.2A16.688,16.688,0,0,0,192.09,92.9a27.892,27.892,0,0,1,2.379,2.826,8.749,8.749,0,0,1,1.388,3.431,16.263,16.263,0,0,0,.595,3.027,3.934,3.934,0,0,0,1.19,1.817,6.749,6.749,0,0,1-.992-2.018,20.59,20.59,0,0,1-.594-3.431,13.783,13.783,0,0,0-1.19-2.624,26.649,26.649,0,0,0-2.181-2.826c-0.587-.713-0.932-1.223-1.008-1.318a7.086,7.086,0,0,1-.975-1.71,0.809,0.809,0,0,1,1.19,0,12.882,12.882,0,0,1,1.388,1.816c0.372,0.419.685,0.456,3.172,0.606a13.178,13.178,0,0,1,2.578.2,1.328,1.328,0,0,1,.594.606,3.854,3.854,0,0,1,.595.807,24.578,24.578,0,0,1-.4,3.431c-0.133.607-.536,1.654-0.595,2.018-0.111.685,0.2,0.4,0.2,0.4a10.266,10.266,0,0,0,.793-2.22,21.768,21.768,0,0,0,.4-3.229,8.9,8.9,0,0,1,1.189,1.211c0.292,0.357.612,0.732,0.992,1.211a4.7,4.7,0,0,1,.793,1.211,3.554,3.554,0,0,1,0,1.009c0.012,0.63,0,1.009,0,1.009s0.367,0,.4-0.605c0.07-1.453.025-1.462-.884-2.808-0.592-.877-2.269-2.827-2.289-2.844V93.051a2.963,2.963,0,0,1,.2-0.959,51.783,51.783,0,0,1,3.569,4.037,4.607,4.607,0,0,1,.992,2.018s0.251,0.2.2-.605c-0.019-.294-0.319-0.762-0.4-1.211a3.874,3.874,0,0,1,0-1.211,0.979,0.979,0,0,1,.4-0.2,1.9,1.9,0,0,1,.6,0,10.391,10.391,0,0,1,1.189,1.817c0.54,1,1.2,3.687,1.785,4.844,0.875,1.74,1.586,1.816,1.586,1.816a12.971,12.971,0,0,0-.2-3.431,34.067,34.067,0,0,0-1.179-3.817c-0.258-.787-0.407-1.431-0.407-1.431a10.038,10.038,0,0,1,1.388,1.413c0.66,0.8,1.429,2.007,1.982,2.624a2.14,2.14,0,0,0,.793.605,2.058,2.058,0,0,0,0-2.018,29.189,29.189,0,0,0-3.172-4.642,7.258,7.258,0,0,0-.793-1.413,0.759,0.759,0,0,0-.595-0.4,4.477,4.477,0,0,1-.793-1.009,3.656,3.656,0,0,0-1.388-1.817,7.22,7.22,0,0,0-3.254-.368c-0.61.009-1.108-.035-1.108-0.035l-0.991-.807a0.915,0.915,0,0,1,.484-0.721,3.571,3.571,0,0,1,1.5-.49,9.554,9.554,0,0,1,3.966.807,8.717,8.717,0,0,1,1.388,1.211,11.675,11.675,0,0,0,1.586,1.009l-2.379-2.22,0.4-.2a2.256,2.256,0,0,0,.793.807,6.842,6.842,0,0,0,1.587.605,10.765,10.765,0,0,1-1.388-.807,0.416,0.416,0,0,1-.2-0.4s9.026,3.308,12.1,4.44c3.155,1.164,9.8,4.219,7.138,8.073a4.667,4.667,0,0,1-3.371,2.018,2.524,2.524,0,0,0,1.586-.4c0.723-.456,5.674-3.091-0.312-7.427-1.874-1.357-5.179-2.594-7.817-3.674-1.879-.77-4.192-1.461-5.75-2.018-2.849-1.02-4.347-1.619-4.362-1.615s-1.61-.524-2.776-1.009a10.139,10.139,0,0,1-1.586-.807,31.175,31.175,0,0,1,3.371.4c1.5,0.274,3.574.762,4.164,0.807a56.48,56.48,0,0,0,6.939,0s-3.943.025-6.889-.261c-1.58-.153-3.177-0.632-4.809-0.95-1.406-.274-4.362-0.605-4.362-0.605a25.949,25.949,0,0,0,2.776-.4,8.061,8.061,0,0,0,1.784-.606,27.476,27.476,0,0,1-2.775.2,3.657,3.657,0,0,1-1.19-.2V82a1,1,0,0,1-.595.2c-0.733.084-2.073,0.1-3.371,0.2-1.131.091-2.264,0.02-3.37,0.2a20.815,20.815,0,0,0-4.957,1.413,12.3,12.3,0,0,0-2.181.2,8.291,8.291,0,0,0-1.785.605s-4.6-.7-7.732,1.009c-1.837,1-3.013,2.873-3.966,4.239C173.465,92.045,172.515,92.274,173.254,93.706Zm-106,7a2.967,2.967,0,0,0,1.983,1.211,2.674,2.674,0,0,0,1.983-1.211,4.526,4.526,0,0,0,.595-1.009l0.2-1.211s-0.044-.914-0.143-1.511c-0.112-.675.122-0.744,0.143-0.709a1.18,1.18,0,0,0,.793-0.2,1.654,1.654,0,0,0,.4-0.807H73.8L74,96.064l0.4-.2a2.129,2.129,0,0,1-.4,1.615,3.31,3.31,0,0,1-1.785.606l0.576,0.469L73.2,98.89a4.623,4.623,0,0,0,1.784-1.009,2.358,2.358,0,0,0-.2-2.018,0.579,0.579,0,0,1-.2-0.4,1.528,1.528,0,0,1,.2-0.605l1.388-.2v1.413a0.43,0.43,0,0,0,.4,0,1.577,1.577,0,0,0,.4-0.4,3.393,3.393,0,0,1,.991,2.018,4.2,4.2,0,0,1-.991,2.22c0.078,0,1.747-1.328,1.384-2.554a4.08,4.08,0,0,0-1.186-1.886l0.2-.807a0.533,0.533,0,0,0,.4.2,1.54,1.54,0,0,0,.595-0.2,1.411,1.411,0,0,1,.4.606,4.025,4.025,0,0,1,0,1.211l0.595-.606a2.111,2.111,0,0,1,1.388,2.018,6.066,6.066,0,0,1-.4,1.816,2.012,2.012,0,0,0,1.19-1.816c-0.13-.928-1.784-2.422-1.784-2.422V94.651a2.271,2.271,0,0,0,.793.2,1.843,1.843,0,0,0,.793-0.2l0.4,1.413a0.761,0.761,0,0,1,.395-0.35,1.277,1.277,0,0,1,.795-0.054,8.384,8.384,0,0,1,.793,1.413,6.408,6.408,0,0,1,.4,1.615,0.488,0.488,0,0,0,.4-0.2,1.387,1.387,0,0,0,0-.4,0.408,0.408,0,0,1,.2-0.2A16.7,16.7,0,0,0,86.09,99.9a27.835,27.835,0,0,1,2.379,2.826,8.747,8.747,0,0,1,1.388,3.431,16.265,16.265,0,0,0,.595,3.027A3.931,3.931,0,0,0,91.642,111a6.741,6.741,0,0,1-.991-2.018,20.571,20.571,0,0,1-.595-3.432,13.768,13.768,0,0,0-1.19-2.623,26.625,26.625,0,0,0-2.181-2.826c-0.587-.713-0.931-1.223-1.007-1.318a7.048,7.048,0,0,1-.975-1.71,0.809,0.809,0,0,1,1.19,0A12.837,12.837,0,0,1,87.28,98.89c0.372,0.419.685,0.456,3.172,0.606a13.176,13.176,0,0,1,2.578.2,1.332,1.332,0,0,1,.595.606,3.863,3.863,0,0,1,.595.807,24.521,24.521,0,0,1-.4,3.431c-0.132.607-.536,1.654-0.595,2.019-0.111.685,0.2,0.4,0.2,0.4a10.25,10.25,0,0,0,.793-2.22,21.693,21.693,0,0,0,.4-3.229,8.894,8.894,0,0,1,1.19,1.211c0.292,0.356.612,0.732,0.991,1.211a4.7,4.7,0,0,1,.793,1.211,3.556,3.556,0,0,1,0,1.009c0.012,0.63,0,1.009,0,1.009s0.367,0,.4-0.605c0.071-1.454.025-1.463-.883-2.808-0.592-.877-2.269-2.827-2.289-2.844V100.05a2.958,2.958,0,0,1,.2-0.958,51.993,51.993,0,0,1,3.569,4.036,4.608,4.608,0,0,1,.991,2.019s0.251,0.2.2-.606c-0.019-.293-0.319-0.762-0.4-1.211a3.859,3.859,0,0,1,0-1.211,0.984,0.984,0,0,1,.4-0.2,1.908,1.908,0,0,1,.595,0,10.406,10.406,0,0,1,1.189,1.817c0.54,1,1.2,3.687,1.785,4.844,0.875,1.74,1.586,1.816,1.586,1.816a12.973,12.973,0,0,0-.2-3.431,34.1,34.1,0,0,0-1.179-3.817c-0.258-.787-0.407-1.43-0.407-1.43a10.047,10.047,0,0,1,1.388,1.412c0.66,0.8,1.429,2.007,1.982,2.624a2.135,2.135,0,0,0,.793.606,2.06,2.06,0,0,0,0-2.019,29.208,29.208,0,0,0-3.172-4.642,7.258,7.258,0,0,0-.793-1.413,0.759,0.759,0,0,0-.595-0.4,4.477,4.477,0,0,1-.793-1.009,3.656,3.656,0,0,0-1.388-1.817,7.218,7.218,0,0,0-3.254-.368c-0.61.009-1.108-.035-1.108-0.035l-0.991-.807a0.918,0.918,0,0,1,.484-0.721,3.569,3.569,0,0,1,1.5-.49,9.554,9.554,0,0,1,3.966.807,8.717,8.717,0,0,1,1.388,1.211,11.675,11.675,0,0,0,1.586,1.009l-2.379-2.22,0.4-.2a2.256,2.256,0,0,0,.793.807,6.842,6.842,0,0,0,1.587.605,10.765,10.765,0,0,1-1.388-.807,0.416,0.416,0,0,1-.2-0.4s9.026,3.308,12.1,4.44c3.155,1.164,9.8,4.218,7.138,8.073a4.667,4.667,0,0,1-3.371,2.018,2.524,2.524,0,0,0,1.586-.4c0.723-.456,5.674-3.091-0.312-7.427-1.874-1.357-5.179-2.594-7.817-3.674-1.879-.77-4.192-1.461-5.75-2.018-2.849-1.02-4.347-1.619-4.362-1.615,0,0-1.61-.524-2.776-1.009a10.124,10.124,0,0,1-1.586-.807,31.174,31.174,0,0,1,3.371.4c1.5,0.274,3.574.762,4.164,0.807a56.48,56.48,0,0,0,6.939,0s-3.943.025-6.889-.261c-1.58-.153-3.177-0.632-4.809-0.95-1.405-.274-4.362-0.605-4.362-0.605a25.934,25.934,0,0,0,2.776-.4,8.06,8.06,0,0,0,1.784-.606,27.489,27.489,0,0,1-2.775.2,3.657,3.657,0,0,1-1.19-.2V89a1,1,0,0,1-.595.2c-0.733.084-2.073,0.1-3.371,0.2-1.132.091-2.264,0.02-3.371,0.2A20.817,20.817,0,0,0,84.5,91.018a12.3,12.3,0,0,0-2.181.2,8.285,8.285,0,0,0-1.785.605s-4.6-.7-7.733,1.009c-1.837,1-3.013,2.873-3.966,4.239C67.465,99.045,66.515,99.274,67.254,100.706Zm1.934,44.276a1.95,1.95,0,0,0,1.309.825,1.758,1.758,0,0,0,1.309-.825,3.129,3.129,0,0,0,.393-0.688l0.131-.826s-0.029-.623-0.094-1.03c-0.074-.461.08-0.507,0.094-0.484a0.762,0.762,0,0,0,.524-0.137,1.15,1.15,0,0,0,.262-0.551h0.393l0.131,0.551,0.262-.138a1.49,1.49,0,0,1-.262,1.1,2.144,2.144,0,0,1-1.178.413l0.381,0.32,0.274,0.23a3.025,3.025,0,0,0,1.178-.688,1.652,1.652,0,0,0-.131-1.376,0.4,0.4,0,0,1-.131-0.275,1.061,1.061,0,0,1,.131-0.413l0.916-.138v0.964a0.277,0.277,0,0,0,.262,0,1.073,1.073,0,0,0,.262-0.276,2.339,2.339,0,0,1,.655,1.376,2.9,2.9,0,0,1-.655,1.514c0.052,0,1.154-.905.914-1.741a2.783,2.783,0,0,0-.783-1.286l0.131-.551a0.35,0.35,0,0,0,.262.138,0.994,0.994,0,0,0,.393-0.138,0.962,0.962,0,0,1,.262.413,2.835,2.835,0,0,1,0,.826l0.393-.413a1.435,1.435,0,0,1,.916,1.376,4.25,4.25,0,0,1-.262,1.239,1.369,1.369,0,0,0,.786-1.239,4.466,4.466,0,0,0-1.178-1.651v-0.551a1.46,1.46,0,0,0,.524.138,1.186,1.186,0,0,0,.524-0.138l0.262,0.964a0.511,0.511,0,0,1,.261-0.239,0.814,0.814,0,0,1,.525-0.037,5.761,5.761,0,0,1,.524.964,4.486,4.486,0,0,1,.262,1.1,0.318,0.318,0,0,0,.262-0.138,0.974,0.974,0,0,0,0-.275,0.274,0.274,0,0,1,.131-0.138,11.429,11.429,0,0,0,.916,1.376,18.823,18.823,0,0,1,1.571,1.927,6.084,6.084,0,0,1,.916,2.339,11.4,11.4,0,0,0,.393,2.064A2.677,2.677,0,0,0,85.293,152a4.649,4.649,0,0,1-.655-1.376,14.442,14.442,0,0,1-.393-2.34,9.555,9.555,0,0,0-.786-1.789,18.119,18.119,0,0,0-1.44-1.926c-0.388-.486-0.615-0.834-0.665-0.9a4.858,4.858,0,0,1-.644-1.165s0.248-.366.785,0a8.709,8.709,0,0,1,.917,1.238c0.246,0.286.452,0.311,2.095,0.413a8.454,8.454,0,0,1,1.7.138,0.9,0.9,0,0,1,.393.412,2.641,2.641,0,0,1,.393.551,17.239,17.239,0,0,1-.262,2.339c-0.088.414-.354,1.128-0.393,1.376-0.073.468,0.131,0.276,0.131,0.276a7.16,7.16,0,0,0,.524-1.514,15.26,15.26,0,0,0,.262-2.2,5.992,5.992,0,0,1,.786.826c0.193,0.243.4,0.5,0.655,0.825a3.215,3.215,0,0,1,.524.826,2.5,2.5,0,0,1,0,.688c0.008,0.43,0,.688,0,0.688s0.242,0,.262-0.413a2.2,2.2,0,0,0-.583-1.914c-0.391-.6-1.5-1.927-1.512-1.939v-0.585a2.072,2.072,0,0,1,.131-0.653,35.144,35.144,0,0,1,2.357,2.752,3.193,3.193,0,0,1,.655,1.376s0.166,0.135.131-.413c-0.013-.2-0.21-0.519-0.262-0.825a2.721,2.721,0,0,1,0-.826,0.647,0.647,0,0,1,.262-0.138,1.236,1.236,0,0,1,.393,0,7.114,7.114,0,0,1,.786,1.239c0.356,0.683.794,2.514,1.178,3.3,0.578,1.186,1.047,1.238,1.047,1.238a9.111,9.111,0,0,0-.131-2.339,23.723,23.723,0,0,0-.778-2.6c-0.171-.537-0.269-0.975-0.269-0.975a6.664,6.664,0,0,1,.916.963c0.436,0.546.944,1.368,1.309,1.789a1.41,1.41,0,0,0,.524.413,1.443,1.443,0,0,0,0-1.376,19.963,19.963,0,0,0-2.095-3.165,4.987,4.987,0,0,0-.524-0.964,0.5,0.5,0,0,0-.393-0.275,3.036,3.036,0,0,1-.524-0.688,2.489,2.489,0,0,0-.916-1.239,4.625,4.625,0,0,0-2.149-.251c-0.4.007-.732-0.024-0.732-0.024l-0.655-.55a0.63,0.63,0,0,1,.32-0.492,2.313,2.313,0,0,1,.989-0.334,6.14,6.14,0,0,1,2.619.551,5.788,5.788,0,0,1,.916.825,7.612,7.612,0,0,0,1.048.688l-1.571-1.513,0.262-.138a1.517,1.517,0,0,0,.524.55,4.4,4.4,0,0,0,1.047.413,7.088,7.088,0,0,1-.916-0.55,0.287,0.287,0,0,1-.131-0.275s5.96,2.255,7.986,3.027c2.084,0.793,6.471,2.876,4.714,5.5a3.059,3.059,0,0,1-2.226,1.376,1.625,1.625,0,0,0,1.047-.275c0.477-.311,3.747-2.108-0.206-5.064a28.148,28.148,0,0,0-5.162-2.5c-1.241-.525-2.769-1-3.8-1.376-1.882-.7-2.871-1.1-2.88-1.1s-1.064-.357-1.833-0.688a6.591,6.591,0,0,1-1.047-.551,20.019,20.019,0,0,1,2.226.275c0.989,0.187,2.36.52,2.75,0.551a36.156,36.156,0,0,0,4.583,0s-2.6.017-4.549-.178c-1.043-.1-2.1-0.431-3.175-0.648-0.928-.187-2.88-0.413-2.88-0.413a16.445,16.445,0,0,0,1.833-.275,5.194,5.194,0,0,0,1.178-.413,17.549,17.549,0,0,1-1.833.138,2.342,2.342,0,0,1-.785-0.138V137a0.652,0.652,0,0,1-.393.138c-0.484.057-1.369,0.066-2.226,0.137-0.747.062-1.5,0.014-2.226,0.138a13.42,13.42,0,0,0-3.273.963,7.863,7.863,0,0,0-1.44.138,5.345,5.345,0,0,0-1.178.413,9.217,9.217,0,0,0-5.106.688,8.58,8.58,0,0,0-2.619,2.89C69.328,143.849,68.7,144.005,69.188,144.982Zm-27.6,48.5c0.721,1.424,2.9,2.374,4.069,2.532,1.347,0.182,2.993-1.163,4.069-2.532a9.538,9.538,0,0,0,1.221-2.11l0.407-2.532s-0.091-1.911-.293-3.159c-0.229-1.412.25-1.555,0.293-1.483a2.391,2.391,0,0,0,1.628-.422,3.49,3.49,0,0,0,.814-1.688h1.221l0.407,1.688,0.814-.422s0.338,2.181-.814,3.376c-1.084,1.124-3.663,1.266-3.663,1.266l1.183,0.981,0.852,0.707s3.139-1.092,3.663-2.11c0.962-1.871-.407-4.22-0.407-4.22a1.216,1.216,0,0,1-.407-0.844,3.234,3.234,0,0,1,.407-1.266l2.849-.422v2.954a0.868,0.868,0,0,0,.814,0,3.276,3.276,0,0,0,.814-0.844s2.035,2.028,2.035,4.22c0,2.239-2.035,4.642-2.035,4.642,0.16-.009,3.585-2.777,2.841-5.34a8.534,8.534,0,0,0-2.434-3.944l0.407-1.688a1.09,1.09,0,0,0,.814.422,3.122,3.122,0,0,0,1.221-.422,2.951,2.951,0,0,1,.814,1.266,8.575,8.575,0,0,1,0,2.532l1.221-1.266c0.861-.129,2.934,2.035,2.849,4.22a12.884,12.884,0,0,1-.814,3.8s2.777-1.364,2.442-3.8c-0.267-1.94-3.663-5.064-3.663-5.064v-1.688a4.6,4.6,0,0,0,1.628.422,3.731,3.731,0,0,0,1.628-.422l0.814,2.954a1.577,1.577,0,0,1,.81-0.732,2.564,2.564,0,0,1,1.631-.112,17.588,17.588,0,0,1,1.628,2.954,13.611,13.611,0,0,1,.814,3.376,0.993,0.993,0,0,0,.814-0.422,2.948,2.948,0,0,0,0-.844,0.84,0.84,0,0,1,.407-0.422,34.958,34.958,0,0,0,2.849,4.22c1.6,1.985,3.525,3.687,4.883,5.908a18.506,18.506,0,0,1,2.849,7.175A34.593,34.593,0,0,0,89.2,211.2,8.217,8.217,0,0,0,91.64,215a14.184,14.184,0,0,1-2.035-4.22,43.739,43.739,0,0,1-1.221-7.174,29.1,29.1,0,0,0-2.442-5.487,55.519,55.519,0,0,0-4.476-5.908c-1.2-1.49-1.912-2.558-2.068-2.756a14.809,14.809,0,0,1-2-3.574s0.772-1.121,2.442,0c0.967,0.649,1.922,2.735,2.849,3.8,0.764,0.876,1.406.952,6.511,1.266a26.491,26.491,0,0,1,5.29.422,2.76,2.76,0,0,1,1.221,1.266,8.058,8.058,0,0,1,1.221,1.688,52.17,52.17,0,0,1-.814,7.174c-0.272,1.27-1.1,3.458-1.221,4.221-0.227,1.433.407,0.844,0.407,0.844a21.724,21.724,0,0,0,1.628-4.643,46.192,46.192,0,0,0,.814-6.752,18.52,18.52,0,0,1,2.441,2.532c0.6,0.746,1.256,1.531,2.035,2.532a9.89,9.89,0,0,1,1.628,2.532,7.614,7.614,0,0,1,0,2.111c0.024,1.317,0,2.11,0,2.11s0.753,0,.814-1.266c0.145-3.039.052-3.058-1.813-5.871-1.215-1.833-4.657-5.91-4.7-5.946v-1.794a6.284,6.284,0,0,1,.407-2,107.814,107.814,0,0,1,7.325,8.44,9.716,9.716,0,0,1,2.035,4.22s0.515,0.415.407-1.266c-0.039-.614-0.654-1.593-0.814-2.532a8.237,8.237,0,0,1,0-2.532,1.994,1.994,0,0,1,.814-0.422,3.843,3.843,0,0,1,1.221,0,21.778,21.778,0,0,1,2.442,3.8c1.107,2.1,2.468,7.71,3.662,10.129,1.8,3.638,3.256,3.8,3.256,3.8a27.589,27.589,0,0,0-.407-7.174,72.193,72.193,0,0,0-2.419-7.982c-0.531-1.645-.837-2.991-0.837-2.991a20.757,20.757,0,0,1,2.849,2.954c1.356,1.675,2.933,4.2,4.069,5.487a4.395,4.395,0,0,0,1.628,1.266,4.374,4.374,0,0,0,0-4.221c-1.9-4.063-6.511-9.706-6.511-9.706a15.2,15.2,0,0,0-1.628-2.954,1.548,1.548,0,0,0-1.221-.844,9.359,9.359,0,0,1-1.628-2.11c-0.712-1.273-1.221-2.987-2.848-3.8-2.085-1.04-4.725-.8-6.678-0.77-1.253.019-2.275-.074-2.275-0.074l-2.035-1.689a1.924,1.924,0,0,1,.995-1.506,7.223,7.223,0,0,1,3.075-1.026,19.306,19.306,0,0,1,8.139,1.688c1.2,0.592,1.946,1.847,2.848,2.533a23.957,23.957,0,0,0,3.256,2.11l-4.883-4.643,0.813-.422a4.676,4.676,0,0,0,1.628,1.688,13.86,13.86,0,0,0,3.256,1.267,21.984,21.984,0,0,1-2.849-1.689,0.875,0.875,0,0,1-.407-0.844s18.525,6.918,24.824,9.285c6.475,2.433,20.111,8.821,14.65,16.881a9.535,9.535,0,0,1-6.918,4.22,5.1,5.1,0,0,0,3.255-.844c1.483-.953,11.645-6.462-0.642-15.528-3.846-2.838-10.629-5.424-16.042-7.683-3.857-1.61-8.6-3.055-11.8-4.221-5.848-2.132-8.923-3.384-8.953-3.376,0,0-3.3-1.095-5.7-2.11a20.577,20.577,0,0,1-3.255-1.688,62.864,62.864,0,0,1,6.918.844c3.074,0.573,7.336,1.593,8.546,1.688a113.745,113.745,0,0,0,14.243,0s-8.094.052-14.141-.545c-3.242-.32-6.52-1.321-9.869-1.987-2.885-.573-8.953-1.266-8.953-1.266a52.143,52.143,0,0,0,5.7-.844,16.374,16.374,0,0,0,3.663-1.266,55.423,55.423,0,0,1-5.7.422,7.386,7.386,0,0,1-2.442-.422V169a2.033,2.033,0,0,1-1.221.422c-1.5.175-4.254,0.205-6.918,0.422-2.322.189-4.648,0.042-6.918,0.422A42.137,42.137,0,0,0,76.99,173.22a24.857,24.857,0,0,0-4.476.422,16.787,16.787,0,0,0-3.662,1.266s-9.451-1.467-15.871,2.11c-3.769,2.1-6.184,6.008-8.139,8.863C42.018,190,40.068,190.481,41.586,193.477Zm93.638,73.633a2.6,2.6,0,0,0,1.735,1.046,2.348,2.348,0,0,0,1.735-1.046,3.892,3.892,0,0,0,.52-0.871l0.174-1.046s-0.039-.79-0.125-1.305c-0.1-.583.106-0.642,0.125-0.613a1.046,1.046,0,0,0,.694-0.174,1.424,1.424,0,0,0,.347-0.7h0.52l0.174,0.7,0.347-.174a1.819,1.819,0,0,1-.347,1.394,2.93,2.93,0,0,1-1.562.523l0.5,0.405,0.364,0.292a4.062,4.062,0,0,0,1.561-.871,2.014,2.014,0,0,0-.174-1.743,0.5,0.5,0,0,1-.173-0.349,1.313,1.313,0,0,1,.173-0.523l1.215-.174v1.22a0.381,0.381,0,0,0,.347,0,1.369,1.369,0,0,0,.347-0.349,2.92,2.92,0,0,1,.867,1.743,3.612,3.612,0,0,1-.867,1.918c0.068,0,1.528-1.147,1.211-2.206a3.518,3.518,0,0,0-1.038-1.629l0.174-.7a0.468,0.468,0,0,0,.347.174,1.355,1.355,0,0,0,.52-0.174,1.21,1.21,0,0,1,.347.523,3.41,3.41,0,0,1,0,1.046l0.521-.523a1.824,1.824,0,0,1,1.214,1.743,5.191,5.191,0,0,1-.347,1.569,1.741,1.741,0,0,0,1.041-1.569,5.684,5.684,0,0,0-1.561-2.092v-0.7a2.009,2.009,0,0,0,.694.174,1.633,1.633,0,0,0,.694-0.174l0.347,1.22a0.66,0.66,0,0,1,.345-0.3,1.13,1.13,0,0,1,.695-0.047,7.169,7.169,0,0,1,.694,1.22,5.435,5.435,0,0,1,.347,1.4,0.428,0.428,0,0,0,.347-0.174,1.162,1.162,0,0,0,0-.349,0.354,0.354,0,0,1,.174-0.174,14.5,14.5,0,0,0,1.214,1.743,24.165,24.165,0,0,1,2.082,2.44A7.493,7.493,0,0,1,155,271.817a13.831,13.831,0,0,0,.52,2.614A3.4,3.4,0,0,0,156.562,276a5.8,5.8,0,0,1-.868-1.743,17.618,17.618,0,0,1-.52-2.963,11.758,11.758,0,0,0-1.041-2.266,23.035,23.035,0,0,0-1.908-2.441c-0.514-.615-0.815-1.056-0.882-1.138a6.055,6.055,0,0,1-.853-1.477,0.715,0.715,0,0,1,1.041,0,11.107,11.107,0,0,1,1.214,1.569c0.326,0.362.6,0.394,2.776,0.523a11.586,11.586,0,0,1,2.255.175,1.16,1.16,0,0,1,.521.522,3.338,3.338,0,0,1,.52.7,20.837,20.837,0,0,1-.347,2.963c-0.116.524-.469,1.428-0.52,1.743-0.1.592,0.173,0.349,0.173,0.349a8.8,8.8,0,0,0,.694-1.918,18.534,18.534,0,0,0,.347-2.789,7.849,7.849,0,0,1,1.041,1.046c0.256,0.308.536,0.632,0.868,1.046a4.082,4.082,0,0,1,.694,1.046,3.069,3.069,0,0,1,0,.872c0.01,0.544,0,.871,0,0.871s0.321,0,.347-0.523c0.061-1.255.022-1.263-.773-2.425-0.518-.757-1.985-2.441-2-2.456v-0.74a2.528,2.528,0,0,1,.173-0.828,44.969,44.969,0,0,1,3.123,3.486,3.954,3.954,0,0,1,.867,1.743s0.22,0.171.174-.523c-0.017-.254-0.279-0.658-0.347-1.046a3.288,3.288,0,0,1,0-1.046,0.857,0.857,0,0,1,.347-0.174,1.67,1.67,0,0,1,.52,0,8.927,8.927,0,0,1,1.041,1.569c0.472,0.866,1.053,3.184,1.562,4.183,0.765,1.5,1.388,1.569,1.388,1.569a11.073,11.073,0,0,0-.174-2.963,29.107,29.107,0,0,0-1.031-3.3c-0.226-.68-0.357-1.235-0.357-1.235a8.7,8.7,0,0,1,1.215,1.22c0.578,0.692,1.25,1.733,1.734,2.266a1.87,1.87,0,0,0,.694.523,1.756,1.756,0,0,0,0-1.743,25.232,25.232,0,0,0-2.775-4.009,6.224,6.224,0,0,0-.694-1.221,0.665,0.665,0,0,0-.521-0.348,3.885,3.885,0,0,1-.694-0.872,3.165,3.165,0,0,0-1.214-1.569,6.408,6.408,0,0,0-2.847-.318c-0.534.008-.97-0.03-0.97-0.03l-0.867-.7a0.789,0.789,0,0,1,.424-0.622,3.14,3.14,0,0,1,1.311-.423,8.438,8.438,0,0,1,3.469.7,7.59,7.59,0,0,1,1.215,1.046,10.194,10.194,0,0,0,1.388.871l-2.082-1.917,0.347-.174a1.953,1.953,0,0,0,.694.7,6.041,6.041,0,0,0,1.388.523,9.466,9.466,0,0,1-1.215-.7,0.353,0.353,0,0,1-.173-0.348s7.9,2.857,10.582,3.835c2.761,1,8.574,3.643,6.246,6.972a4.1,4.1,0,0,1-2.949,1.743,2.229,2.229,0,0,0,1.388-.348c0.632-.394,4.964-2.669-0.274-6.414a38.048,38.048,0,0,0-6.839-3.173c-1.644-.665-3.669-1.262-5.032-1.744-2.493-.881-3.8-1.4-3.816-1.394s-1.409-.452-2.429-0.872a8.929,8.929,0,0,1-1.388-.7,27.5,27.5,0,0,1,2.949.349c1.311,0.236,3.128.658,3.644,0.7a49.957,49.957,0,0,0,6.072,0s-3.451.021-6.029-.225c-1.382-.133-2.779-0.546-4.207-0.821-1.23-.237-3.817-0.523-3.817-0.523a23.129,23.129,0,0,0,2.429-.348,7.149,7.149,0,0,0,1.561-.523s-1.406.174-2.428,0.174a3.236,3.236,0,0,1-1.041-.174V257a0.884,0.884,0,0,1-.521.174c-0.641.073-1.813,0.085-2.949,0.175-0.99.078-1.982,0.017-2.949,0.174a18.389,18.389,0,0,0-4.338,1.22,10.963,10.963,0,0,0-1.908.174,7.338,7.338,0,0,0-1.561.523s-4.029-.606-6.766.872a11.045,11.045,0,0,0-3.47,3.66C135.407,265.675,134.576,265.873,135.223,267.11Zm-35.068-28.193a1.809,1.809,0,0,0,1.2.716,1.631,1.631,0,0,0,1.2-.716,2.611,2.611,0,0,0,.361-0.6l0.121-.715s-0.027-.541-0.087-0.893c-0.068-.4.074-0.44,0.087-0.419a0.729,0.729,0,0,0,.481-0.12,0.96,0.96,0,0,0,.241-0.477h0.361l0.121,0.477,0.24-.119a1.232,1.232,0,0,1-.24.954,2.049,2.049,0,0,1-1.084.358l0.35,0.277,0.252,0.2a2.831,2.831,0,0,0,1.083-.6,1.362,1.362,0,0,0-.12-1.193,0.339,0.339,0,0,1-.12-0.238,0.887,0.887,0,0,1,.12-0.358l0.843-.12v0.835a0.265,0.265,0,0,0,.241,0,0.953,0.953,0,0,0,.24-0.238,1.988,1.988,0,0,1,.6,1.192,2.455,2.455,0,0,1-.6,1.312c0.048,0,1.061-.784.841-1.509a2.416,2.416,0,0,0-.72-1.114l0.12-.478a0.325,0.325,0,0,0,.241.12,0.95,0.95,0,0,0,.361-0.12,0.835,0.835,0,0,1,.241.358,2.325,2.325,0,0,1,0,.716l0.361-.358a1.251,1.251,0,0,1,.842,1.193,3.487,3.487,0,0,1-.24,1.073,1.192,1.192,0,0,0,.722-1.073,3.891,3.891,0,0,0-1.083-1.431v-0.478a1.4,1.4,0,0,0,.481.12,1.141,1.141,0,0,0,.482-0.12l0.24,0.835a0.465,0.465,0,0,1,.24-0.207,0.8,0.8,0,0,1,.483-0.031,4.893,4.893,0,0,1,.481.835,3.669,3.669,0,0,1,.241.954,0.3,0.3,0,0,0,.241-0.119,0.829,0.829,0,0,0,0-.239,0.242,0.242,0,0,1,.12-0.119,9.862,9.862,0,0,0,.843,1.192,16.677,16.677,0,0,1,1.444,1.67,5.087,5.087,0,0,1,.843,2.028,9.367,9.367,0,0,0,.361,1.789,2.325,2.325,0,0,0,.722,1.073,3.939,3.939,0,0,1-.6-1.193A11.868,11.868,0,0,1,114,241.78a8,8,0,0,0-.722-1.551,15.672,15.672,0,0,0-1.324-1.669c-0.357-.421-0.566-0.723-0.612-0.779a4.126,4.126,0,0,1-.592-1.01,0.5,0.5,0,0,1,.722,0,7.594,7.594,0,0,1,.843,1.073c0.226,0.248.416,0.269,1.926,0.358a8.214,8.214,0,0,1,1.565.119,0.8,0.8,0,0,1,.361.358,2.285,2.285,0,0,1,.361.477,14.092,14.092,0,0,1-.241,2.027c-0.08.359-.325,0.978-0.361,1.193-0.067.405,0.121,0.239,0.121,0.239a5.958,5.958,0,0,0,.481-1.312,12.422,12.422,0,0,0,.241-1.909,5.37,5.37,0,0,1,.722.716c0.178,0.211.372,0.433,0.6,0.716a2.778,2.778,0,0,1,.482.715,2.059,2.059,0,0,1,0,.6c0.007,0.372,0,.6,0,0.6s0.223,0,.24-0.358a1.835,1.835,0,0,0-.536-1.659c-0.359-.518-1.377-1.67-1.39-1.68V238.53a1.706,1.706,0,0,1,.121-0.567,31.056,31.056,0,0,1,2.167,2.386,2.676,2.676,0,0,1,.6,1.192s0.153,0.118.121-.358c-0.012-.173-0.194-0.45-0.241-0.715a2.217,2.217,0,0,1,0-.716,0.6,0.6,0,0,1,.241-0.119,1.17,1.17,0,0,1,.361,0,6.121,6.121,0,0,1,.722,1.073c0.328,0.593.731,2.179,1.084,2.863a1.679,1.679,0,0,0,.963,1.073,7.442,7.442,0,0,0-.121-2.027,19.738,19.738,0,0,0-.715-2.256c-0.157-.465-0.248-0.845-0.248-0.845a5.956,5.956,0,0,1,.843.835c0.4,0.473.868,1.185,1.2,1.55a1.293,1.293,0,0,0,.481.358,1.187,1.187,0,0,0,0-1.193,17.294,17.294,0,0,0-1.926-2.743,4.218,4.218,0,0,0-.481-0.835,0.462,0.462,0,0,0-.361-0.238,2.667,2.667,0,0,1-.482-0.6,2.168,2.168,0,0,0-.843-1.073,4.5,4.5,0,0,0-1.975-.218c-0.371.006-.673-0.021-0.673-0.021l-0.6-.477a0.539,0.539,0,0,1,.294-0.425,2.19,2.19,0,0,1,.91-0.29,5.937,5.937,0,0,1,2.408.477,5.306,5.306,0,0,1,.842.715,7.139,7.139,0,0,0,.963.6l-1.444-1.312,0.24-.119a1.351,1.351,0,0,0,.482.477,4.209,4.209,0,0,0,.963.357,6.564,6.564,0,0,1-.843-0.477,0.242,0.242,0,0,1-.12-0.238s5.48,1.955,7.343,2.624c1.916,0.687,5.949,2.493,4.334,4.77a2.858,2.858,0,0,1-2.047,1.193,1.565,1.565,0,0,0,.963-0.239c0.439-.269,3.445-1.826-0.19-4.388a26.52,26.52,0,0,0-4.745-2.171c-1.141-.455-2.546-0.863-3.491-1.193-1.73-.6-2.64-0.956-2.649-0.954s-0.977-.309-1.685-0.6a6.23,6.23,0,0,1-.963-0.477,19.455,19.455,0,0,1,2.047.238c0.909,0.162,2.17.45,2.527,0.477a35.114,35.114,0,0,0,4.214,0s-2.394.015-4.183-.154c-0.959-.09-1.929-0.373-2.92-0.561-0.853-.162-2.648-0.358-2.648-0.358a15.989,15.989,0,0,0,1.685-.239,5.026,5.026,0,0,0,1.084-.357s-0.976.119-1.686,0.119a2.28,2.28,0,0,1-.722-0.119V232a0.617,0.617,0,0,1-.361.119c-0.445.05-1.258,0.058-2.046,0.12-0.687.053-1.375,0.011-2.047,0.119a12.886,12.886,0,0,0-3.009.835,7.615,7.615,0,0,0-1.324.119,5.091,5.091,0,0,0-1.084.358,8.957,8.957,0,0,0-4.695.6,7.606,7.606,0,0,0-2.407,2.5C100.283,237.935,99.706,238.071,100.155,238.917Zm73.968-55.6a1.447,1.447,0,0,0,.956.551,1.309,1.309,0,0,0,.956-0.551,2.027,2.027,0,0,0,.287-0.459l0.095-.55s-0.021-.416-0.069-0.687c-0.054-.307.059-0.338,0.069-0.322a0.6,0.6,0,0,0,.383-0.092,0.734,0.734,0,0,0,.191-0.367h0.287l0.095,0.367,0.191-.092a0.921,0.921,0,0,1-.191.734,1.657,1.657,0,0,1-.86.275l0.278,0.214,0.2,0.153a2.271,2.271,0,0,0,.86-0.458,1.021,1.021,0,0,0-.1-0.918,0.259,0.259,0,0,1-.095-0.183,0.667,0.667,0,0,1,.095-0.275l0.67-.092v0.642a0.216,0.216,0,0,0,.191,0,0.735,0.735,0,0,0,.191-0.183,1.514,1.514,0,0,1,.478.917,1.865,1.865,0,0,1-.478,1.009,1.333,1.333,0,0,0,.667-1.161,1.853,1.853,0,0,0-.571-0.857l0.095-.367a0.261,0.261,0,0,0,.191.092,0.768,0.768,0,0,0,.287-0.092,0.635,0.635,0,0,1,.191.275,1.7,1.7,0,0,1,0,.55l0.287-.275a0.969,0.969,0,0,1,.669.918,2.625,2.625,0,0,1-.191.825,0.922,0.922,0,0,0,.574-0.825,3.016,3.016,0,0,0-.861-1.1v-0.367a1.15,1.15,0,0,0,.383.092,0.929,0.929,0,0,0,.382-0.092l0.191,0.642a0.362,0.362,0,0,1,.191-0.159,0.647,0.647,0,0,1,.383-0.024,3.71,3.71,0,0,1,.382.642,2.757,2.757,0,0,1,.191.734,0.246,0.246,0,0,0,.192-0.092,0.627,0.627,0,0,0,0-.184,0.189,0.189,0,0,1,.095-0.091,7.621,7.621,0,0,0,.669.917,13.081,13.081,0,0,1,1.148,1.285,3.84,3.84,0,0,1,.669,1.559,7.02,7.02,0,0,0,.286,1.376,1.8,1.8,0,0,0,.574.826,3.008,3.008,0,0,1-.478-0.917,8.918,8.918,0,0,1-.287-1.56,6.064,6.064,0,0,0-.573-1.193,12.266,12.266,0,0,0-1.052-1.284c-0.283-.324-0.449-0.556-0.486-0.6a3.2,3.2,0,0,1-.47-0.777,0.405,0.405,0,0,1,.574,0,5.906,5.906,0,0,1,.669.825c0.18,0.191.33,0.207,1.529,0.276a6.689,6.689,0,0,1,1.243.091,0.626,0.626,0,0,1,.287.276,1.737,1.737,0,0,1,.287.367,10.623,10.623,0,0,1-.191,1.559c-0.064.276-.259,0.752-0.287,0.918-0.053.311,0.1,0.183,0.1,0.183a4.527,4.527,0,0,0,.383-1.009,9.341,9.341,0,0,0,.191-1.468,4.214,4.214,0,0,1,.574.551c0.14,0.162.295,0.332,0.478,0.55a2.14,2.14,0,0,1,.382.55,1.535,1.535,0,0,1,0,.459c0,0.287,0,.459,0,0.459a0.232,0.232,0,0,0,.191-0.275,1.385,1.385,0,0,0-.426-1.276c-0.285-.4-1.094-1.285-1.1-1.293v-0.39a1.288,1.288,0,0,1,.095-0.436,24.144,24.144,0,0,1,1.721,1.835,2.04,2.04,0,0,1,.478.917s0.121,0.091.095-.275c-0.009-.133-0.153-0.346-0.191-0.55a1.666,1.666,0,0,1,0-.551,0.483,0.483,0,0,1,.191-0.091,0.938,0.938,0,0,1,.287,0,4.7,4.7,0,0,1,.574.825c0.26,0.456.58,1.676,0.86,2.2a1.319,1.319,0,0,0,.765.826,5.538,5.538,0,0,0-.1-1.56,14.875,14.875,0,0,0-.568-1.735c-0.125-.358-0.2-0.65-0.2-0.65a4.67,4.67,0,0,1,.669.642c0.318,0.364.689,0.912,0.956,1.193a1.039,1.039,0,0,0,.382.275,0.891,0.891,0,0,0,0-.918,13.313,13.313,0,0,0-1.529-2.11,3.238,3.238,0,0,0-.383-0.642,0.37,0.37,0,0,0-.287-0.183,2.054,2.054,0,0,1-.382-0.459,1.678,1.678,0,0,0-.669-0.826,3.674,3.674,0,0,0-1.569-.167c-0.294,0-.534-0.016-0.534-0.016L187.6,180.2a0.411,0.411,0,0,1,.233-0.328,1.8,1.8,0,0,1,.723-0.223,4.866,4.866,0,0,1,1.912.367,4.183,4.183,0,0,1,.669.551,5.781,5.781,0,0,0,.765.459l-1.148-1.01,0.192-.091a1.049,1.049,0,0,0,.382.367,3.439,3.439,0,0,0,.765.275,5.261,5.261,0,0,1-.669-0.367,0.184,0.184,0,0,1-.1-0.184s4.352,1.5,5.831,2.019c1.521,0.529,4.725,1.917,3.442,3.669a2.294,2.294,0,0,1-1.625.918,1.276,1.276,0,0,0,.764-0.184c0.349-.207,2.736-1.4-0.15-3.375a21.5,21.5,0,0,0-3.769-1.671c-0.906-.349-2.021-0.664-2.772-0.917-1.374-.464-2.1-0.736-2.1-0.734s-0.777-.238-1.339-0.459a4.994,4.994,0,0,1-.765-0.367,16.091,16.091,0,0,1,1.626.184c0.722,0.124,1.723.346,2.007,0.367a28.994,28.994,0,0,0,3.346,0s-1.9.011-3.322-.119c-0.761-.069-1.531-0.287-2.318-0.432-0.678-.124-2.1-0.275-2.1-0.275a13.147,13.147,0,0,0,1.338-.183,4.033,4.033,0,0,0,.86-0.276s-0.775.092-1.338,0.092a1.849,1.849,0,0,1-.573-0.092V178a0.5,0.5,0,0,1-.287.092c-0.354.038-1,.044-1.625,0.091-0.546.042-1.092,0.01-1.625,0.092a10.479,10.479,0,0,0-2.39.642,6.32,6.32,0,0,0-1.052.092,4.147,4.147,0,0,0-.86.275,7.326,7.326,0,0,0-3.728.459,5.931,5.931,0,0,0-1.912,1.927C174.224,182.566,173.766,182.67,174.123,183.321Zm118.21-39.991c-0.922,1.764-3.711,2.942-5.205,3.138-1.722.226-3.827-1.441-5.2-3.138a11.7,11.7,0,0,1-1.562-2.614l-0.52-3.138s0.116-2.368.375-3.914c0.293-1.75-.32-1.927-0.375-1.838a3.135,3.135,0,0,1-2.082-.523,4.265,4.265,0,0,1-1.041-2.092h-1.561l-0.521,2.092-1.041-.523s-0.432,2.7,1.041,4.183c1.387,1.393,4.684,1.569,4.684,1.569l-1.512,1.216-1.09.876s-4.015-1.354-4.684-2.615c-1.231-2.318.52-5.229,0.52-5.229a1.5,1.5,0,0,0,.521-1.046,3.928,3.928,0,0,0-.521-1.569l-3.643-.523V131.3a1.143,1.143,0,0,1-1.041,0,4.128,4.128,0,0,1-1.041-1.046s-2.6,2.513-2.6,5.229c0,2.774,2.6,5.753,2.6,5.753-0.2-.011-4.585-3.441-3.633-6.618a10.563,10.563,0,0,1,3.113-4.887l-0.521-2.092a1.4,1.4,0,0,1-1.041.523,4.075,4.075,0,0,1-1.561-.523,3.653,3.653,0,0,0-1.041,1.569,10.3,10.3,0,0,0,0,3.138l-1.561-1.569c-1.1-.159-3.753,2.522-3.644,5.229a15.565,15.565,0,0,0,1.041,4.707s-3.552-1.69-3.123-4.707c0.342-2.4,4.685-6.275,4.685-6.275v-2.092a6.025,6.025,0,0,1-2.082.523,4.887,4.887,0,0,1-2.082-.523l-1.041,3.661a1.988,1.988,0,0,0-1.036-.907,3.39,3.39,0,0,0-2.087-.139,21.656,21.656,0,0,0-2.082,3.66,16.452,16.452,0,0,0-1.041,4.184,1.29,1.29,0,0,1-1.041-.523,3.545,3.545,0,0,1,0-1.046,1.061,1.061,0,0,0-.52-0.523,43.331,43.331,0,0,1-3.643,5.23c-2.047,2.459-4.509,4.568-6.246,7.321-3.308,5.24-3.643,8.89-3.643,8.89a41.656,41.656,0,0,1-1.562,7.844A10.188,10.188,0,0,1,228.315,170a17.373,17.373,0,0,0,2.6-5.229,52.667,52.667,0,0,0,1.561-8.89,35.473,35.473,0,0,1,3.123-6.8,69.265,69.265,0,0,1,5.725-7.322c1.541-1.846,2.445-3.169,2.645-3.414a18.19,18.19,0,0,0,2.56-4.43s-0.988-1.388-3.123,0c-1.237.8-2.458,3.39-3.643,4.707-0.978,1.086-1.8,1.18-8.328,1.569-2.277.135-4.9-.021-6.766,0.523-0.927.27-1.1,1.087-1.561,1.568a10.038,10.038,0,0,0-1.562,2.092,62.827,62.827,0,0,0,1.041,8.89c0.348,1.573,1.407,4.284,1.562,5.229,0.29,1.777-.521,1.046-0.521,1.046a26.4,26.4,0,0,1-2.082-5.752,55.615,55.615,0,0,1-1.041-8.367,23.359,23.359,0,0,0-3.122,3.138c-0.767.924-1.607,1.9-2.6,3.137a12.2,12.2,0,0,0-2.082,3.138,9.126,9.126,0,0,0,0,2.615c-0.03,1.632,0,2.614,0,2.614s-0.963,0-1.041-1.569c-0.185-3.765-.066-3.789,2.318-7.274,1.555-2.271,5.956-7.324,6.01-7.368v-2.222a7.575,7.575,0,0,0-.521-2.484A135.189,135.189,0,0,0,210.1,149.6c-2.374,3.112-2.6,5.23-2.6,5.23s-0.659.514-.521-1.569c0.051-.761.837-1.975,1.041-3.138a9.853,9.853,0,0,0,0-3.137,2.572,2.572,0,0,0-1.041-.523,5.049,5.049,0,0,0-1.561,0,26.844,26.844,0,0,0-3.123,4.706c-1.416,2.6-3.158,9.554-4.684,12.551-2.3,4.508-4.164,4.706-4.164,4.706a33.127,33.127,0,0,1,.52-8.89,87.482,87.482,0,0,1,3.094-9.89c0.679-2.039,1.07-3.706,1.07-3.706a26.109,26.109,0,0,0-3.643,3.66c-1.735,2.076-3.752,5.2-5.205,6.8a5.59,5.59,0,0,1-2.082,1.568,5.275,5.275,0,0,1,0-5.229c2.43-5.036,8.328-12.027,8.328-12.027a18.651,18.651,0,0,1,2.082-3.661c0.908-1.141,1.561-1.046,1.561-1.046a11.63,11.63,0,0,0,2.082-2.615c0.912-1.577,1.562-3.7,3.643-4.706,2.666-1.288,6.043-.992,8.541-0.954,1.6,0.024,2.91-.092,2.91-0.092l2.6-2.092a2.374,2.374,0,0,0-1.272-1.867,9.444,9.444,0,0,0-3.933-1.27,25.343,25.343,0,0,0-10.409,2.092c-1.538.732-2.489,2.288-3.643,3.137a30.76,30.76,0,0,1-4.164,2.615l6.246-5.752-1.041-.523a5.86,5.86,0,0,1-2.082,2.091,18.053,18.053,0,0,1-4.164,1.569,28.377,28.377,0,0,0,3.643-2.092,1.068,1.068,0,0,0,.521-1.045s-23.693,8.571-31.749,11.5c-8.282,3.015-25.722,10.93-18.737,20.918a12.307,12.307,0,0,0,8.848,5.229,6.7,6.7,0,0,1-4.164-1.046c-1.9-1.181-14.893-8.007.822-19.241,4.919-3.517,13.594-6.721,20.518-9.52,4.932-1.994,11-3.785,15.093-5.23,7.48-2.643,11.413-4.194,11.451-4.183,0,0,4.227-1.357,7.286-2.615a26.727,26.727,0,0,0,4.164-2.092,82.951,82.951,0,0,0-8.848,1.046c-3.932.71-9.382,1.974-10.93,2.092a150.1,150.1,0,0,1-18.216,0s10.351,0.064,18.084-.676c4.148-.4,8.34-1.637,12.623-2.462,3.69-.71,11.451-1.568,11.451-1.568a69.1,69.1,0,0,1-7.287-1.046,21.406,21.406,0,0,1-4.684-1.569s4.22,0.523,7.286.523a9.706,9.706,0,0,0,3.123-.523V113a2.646,2.646,0,0,0,1.562.523c1.924,0.217,5.44.254,8.848,0.523,2.97,0.234,5.944.052,8.848,0.523a55.148,55.148,0,0,1,13.011,3.66,32.734,32.734,0,0,1,5.725.523,21.926,21.926,0,0,1,4.685,1.569s12.087-1.818,20.3,2.615c4.821,2.6,7.909,7.444,10.409,10.981C291.78,139.025,294.274,139.618,292.333,143.33Zm-29.741,73.23a4.579,4.579,0,0,1-3.045,1.816c-1.007.131-2.238-.834-3.044-1.816a6.767,6.767,0,0,1-.913-1.514l-0.305-1.817s0.068-1.371.22-2.266c0.171-1.013-.187-1.116-0.22-1.064a1.842,1.842,0,0,1-1.217-.3,2.452,2.452,0,0,1-.609-1.211h-0.913l-0.3,1.211-0.609-.3a3.134,3.134,0,0,0,.609,2.422,5.171,5.171,0,0,0,2.74.908l-0.885.7-0.637.507s-2.348-.784-2.74-1.514a3.467,3.467,0,0,1,.3-3.027,0.864,0.864,0,0,0,.305-0.606,2.257,2.257,0,0,0-.305-0.908l-2.131-.3V209.6a0.67,0.67,0,0,1-.608,0,2.364,2.364,0,0,1-.609-0.6,5.055,5.055,0,0,0-1.522,3.027,6.248,6.248,0,0,0,1.522,3.331c-0.12-.007-2.682-1.992-2.125-3.831a6.116,6.116,0,0,1,1.82-2.83l-0.3-1.211a0.822,0.822,0,0,1-.609.3,2.392,2.392,0,0,1-.913-0.3,2.119,2.119,0,0,0-.609.908,5.889,5.889,0,0,0,0,1.817l-0.913-.908c-0.644-.093-2.195,1.46-2.131,3.027a8.921,8.921,0,0,0,.608,2.725s-2.077-.978-1.826-2.725c0.2-1.392,2.74-3.633,2.74-3.633v-1.211a3.552,3.552,0,0,1-1.218.3,2.881,2.881,0,0,1-1.218-.3l-0.609,2.119a1.158,1.158,0,0,0-.606-0.525,2,2,0,0,0-1.22-.08,12.5,12.5,0,0,0-1.218,2.119,9.438,9.438,0,0,0-.609,2.422,0.759,0.759,0,0,1-.609-0.3,2.07,2.07,0,0,1,0-.605,0.618,0.618,0,0,0-.3-0.3,24.99,24.99,0,0,1-2.131,3.028,42.108,42.108,0,0,0-3.653,4.238,12.925,12.925,0,0,0-2.131,5.147,23.918,23.918,0,0,1-.913,4.541A5.91,5.91,0,0,1,225.147,232a10.037,10.037,0,0,0,1.522-3.028,30.154,30.154,0,0,0,.914-5.146,20.447,20.447,0,0,1,1.826-3.936,40.157,40.157,0,0,1,3.349-4.239c0.9-1.069,1.43-1.835,1.547-1.976a10.482,10.482,0,0,0,1.5-2.565s-0.578-.8-1.827,0c-0.723.466-1.437,1.963-2.13,2.725-0.572.628-1.052,0.683-4.871,0.908a20.708,20.708,0,0,0-3.958.3,2.016,2.016,0,0,0-.913.908,5.78,5.78,0,0,0-.913,1.211,35.9,35.9,0,0,0,.608,5.147c0.2,0.911.823,2.48,0.914,3.027,0.169,1.029-.3.606-0.3,0.606a15.194,15.194,0,0,1-1.217-3.33,31.834,31.834,0,0,1-.609-4.844,13.543,13.543,0,0,0-1.827,1.816c-0.448.535-.939,1.1-1.522,1.817a7.044,7.044,0,0,0-1.218,1.816,5.224,5.224,0,0,0,0,1.514c-0.018.945,0,1.514,0,1.514s-0.563,0-.609-0.909c-0.108-2.18-.038-2.193,1.356-4.211,0.909-1.315,3.484-4.24,3.515-4.266v-1.286a4.354,4.354,0,0,0-.3-1.438,78.531,78.531,0,0,0-5.48,6.055,6.827,6.827,0,0,0-1.522,3.027s-0.385.3-.3-0.908c0.029-.441.489-1.143,0.608-1.817a5.637,5.637,0,0,0,0-1.816,1.514,1.514,0,0,0-.608-0.3,2.982,2.982,0,0,0-.914,0,15.622,15.622,0,0,0-1.826,2.725c-0.828,1.5-1.847,5.531-2.74,7.266-1.343,2.61-2.436,2.725-2.436,2.725a19.011,19.011,0,0,1,.305-5.147,50.3,50.3,0,0,1,1.809-5.726c0.4-1.18.626-2.146,0.626-2.146a15.186,15.186,0,0,0-2.131,2.12c-1.014,1.2-2.194,3.01-3.044,3.935a3.281,3.281,0,0,1-1.218.909,3.029,3.029,0,0,1,0-3.028,43.9,43.9,0,0,1,4.871-6.963,10.789,10.789,0,0,1,1.218-2.119,1.169,1.169,0,0,1,.913-0.606,6.752,6.752,0,0,0,1.218-1.514c0.533-.913.913-2.142,2.131-2.724,1.559-.746,3.534-0.575,5-0.553,0.937,0.014,1.7-.053,1.7-0.053l1.522-1.211a1.371,1.371,0,0,0-.744-1.081,5.561,5.561,0,0,0-2.3-.735,14.951,14.951,0,0,0-6.088,1.211,13.239,13.239,0,0,0-2.131,1.816,18.027,18.027,0,0,1-2.436,1.514l3.653-3.33-0.609-.3a3.406,3.406,0,0,1-1.217,1.211,10.673,10.673,0,0,1-2.436.908,16.571,16.571,0,0,0,2.131-1.211,0.615,0.615,0,0,0,.3-0.6s-13.858,4.962-18.57,6.66c-4.845,1.746-15.045,6.328-10.96,12.11a7.222,7.222,0,0,0,5.176,3.028,3.954,3.954,0,0,1-2.436-.606c-1.109-.683-8.711-4.636.48-11.139,2.878-2.036,7.952-3.891,12-5.512,2.885-1.155,6.437-2.191,8.828-3.028,4.375-1.53,6.675-2.428,6.7-2.422,0,0,2.473-.785,4.262-1.513a15.7,15.7,0,0,0,2.436-1.211,48.78,48.78,0,0,0-5.175.605c-2.3.411-5.488,1.143-6.393,1.211a88.836,88.836,0,0,1-10.655,0s6.054,0.037,10.578-.391c2.425-.23,4.877-0.948,7.383-1.425,2.158-.412,6.7-0.909,6.7-0.909a40.715,40.715,0,0,1-4.262-.6,12.605,12.605,0,0,1-2.74-.908s2.469,0.3,4.262.3a5.742,5.742,0,0,0,1.827-.3V199a1.552,1.552,0,0,0,.913.3c1.126,0.126,3.183.147,5.176,0.3,1.737,0.135,3.476.03,5.175,0.3a32.521,32.521,0,0,1,7.61,2.12,19.275,19.275,0,0,1,3.349.3,12.9,12.9,0,0,1,2.74.909s7.07-1.053,11.873,1.513c2.82,1.507,4.626,4.31,6.088,6.358C262.268,214.067,263.727,214.41,262.592,216.56Z"/>
</svg>
