<svg class="icon-scallop" xmlns="http://www.w3.org/2000/svg" width="320" height="320" viewBox="0 0 320 320">
  <path class="cls-1" d="M160.059,31.4a89.159,89.159,0,0,1,14.985.429,116.388,116.388,0,0,1,19.98,4.989s8.467-1.12,14.985,1.247c7.185,2.609,12.487,8.73,12.487,8.73s8.123,0.042,12.488,2.494a17.931,17.931,0,0,1,7.492,8.73s8.98,3.291,13.737,7.483a26.06,26.06,0,0,1,7.492,11.224s8.546,3.218,12.488,8.73c5.237,7.322,6.244,17.46,6.244,17.46s6.161,4.251,8.741,9.977c3.007,6.673,2.5,14.966,2.5,14.966s5.991,5.869,7.493,12.471c1.615,7.1-1.249,14.966-1.249,14.966s4.441,3.328,5,7.483c0.681,5.1-2.5,11.224-2.5,11.224a26.582,26.582,0,0,1-1.249,9.977,136.087,136.087,0,0,1-7.493,17.46s-30.718,12.851-44.955,22.449c-5.023,3.386-9.56,10.065-9.56,10.065s6.575,6.367,7.137,14.553c0.294,4.3-3.576,8.522-4.758,12.315a13.222,13.222,0,0,0,0,7.836s-24.177,2.1-40.439,1.12a47.181,47.181,0,0,0-18.564,2.749l-3.746,4.989S173.181,290,160.059,290s-18.747-12.493-18.747-12.493l-3.749-5a56.643,56.643,0,0,0-19.754-2.744c-16.276.979-40.472-1.121-40.472-1.121a13.261,13.261,0,0,0,0-7.85c-1.183-3.8-5.056-8.032-4.761-12.336,0.562-8.2,7.142-14.578,7.142-14.578s-3.364-6.7-8.392-10.093C57.077,214.174,26.334,201.3,26.334,201.3a136.425,136.425,0,0,1-7.5-17.49,26.643,26.643,0,0,1-1.25-9.994s-3.181-6.134-2.5-11.244c0.555-4.162,5-7.5,5-7.5s-2.867-7.88-1.25-14.991c1.5-6.613,7.5-12.493,7.5-12.493s-0.51-8.307,2.5-14.991c2.582-5.736,8.748-10,8.748-10s1.007-10.154,6.249-17.49c3.945-5.521,12.5-8.745,12.5-8.745a26.105,26.105,0,0,1,7.5-11.243c4.761-4.2,13.747-7.5,13.747-7.5a17.96,17.96,0,0,1,7.5-8.745c4.368-2.456,12.5-2.5,12.5-2.5s5.307-6.131,12.5-8.745c6.523-2.371,15-1.249,15-1.249a116.4,116.4,0,0,1,20-5,71.331,71.331,0,0,1,15,0h0Zm22.5,234.866A239.219,239.219,0,0,1,208.8,246.275a194.535,194.535,0,0,1,26.245-13.742s-17.08,5.622-27.494,11.243S182.554,266.264,182.554,266.264Zm-47.491,0a239.1,239.1,0,0,0-26.245-19.989,194.519,194.519,0,0,0-26.245-13.742s17.08,5.622,27.495,11.243S135.063,266.264,135.063,266.264ZM153.81,33.9a18.6,18.6,0,0,0,6.249,1.249,20.254,20.254,0,0,0,6.248-1.249l-6.248,233.616Zm6.249,223.622M217.548,46.39s2.354,1.933,5,3.748a7.284,7.284,0,0,0,5,1.249L160.059,257.519Zm-57.415,211M259.694,75.359s0.346,3.512,2.845,4.762a12.459,12.459,0,0,0,5,1.249l-107.37,176.5ZM160.1,257.871,291.284,123.845s-0.865,4.173,0,6.247,3.749,2.5,3.749,2.5L160.174,257.923ZM160.1,257.871m139.019-86.778s-0.627,2.905.122,4.223a3.092,3.092,0,0,0,1.422,1.515l-140.562,81.04ZM160.059,257.129,102.825,46.374s-2.344,1.929-4.977,3.741a7.237,7.237,0,0,1-4.977,1.247l67.188,205.767ZM159.984,257,60.866,75.292s-0.345,3.506-2.833,4.753a12.375,12.375,0,0,1-4.977,1.247L159.95,257.476Zm99.149,182.189M29.417,123.692s0.861,4.166,0,6.236-3.733,2.494-3.733,2.494L159.943,257.533Zm130.6,133.789-138.4-86.625s0.625,2.9-.122,4.216a3.085,3.085,0,0,1-1.415,1.513l139.937,80.9Z"/>
</svg>
