<svg id="measure" xmlns="http://www.w3.org/2000/svg" width="320" height="320" viewBox="0 0 320 320">
<defs>
  </defs>
  <path id="Shape_2_copy" data-name="Shape 2 copy" class="measure" d="M129.86,85.685c2.2,0,6.721-3.675,6.721-3.675l1.515,8.572,89.536,0.735L226.554,83.4s13.445,4.909,14.39,17.96-9.775,15.4-9.775,15.4l-1.649-7.518L92.293,110.643s0.658,9.163.373,9.36c-15.532-3.887-18.238-23.461.292-30.977C100.577,85.937,115.423,85.708,129.86,85.685Z"/>
  <path class="measure" d="M299.739,180.339c-0.782,4.016-6.476,7.09-9.874,7.787-3.918.8-10.264-2.452-14.9-5.9a38.706,38.706,0,0,1-5.811-5.422L265.4,170.05s-1.622-5.187-2.244-8.607c-0.7-3.871-2.3-4.146-2.364-3.942,0,0-3.706,9.755-6.125,8.179-2.315-1.509-4.129-5.255-4.129-5.255l-3.695.339L247,163a37.213,37.213,0,0,1,3.92,2.288c4.417,2.789,12.405,2.575,12.405,2.575l-2.626,2.926-1.891,2.108s-10.64-2.226-13.243-4.856c-4.787-4.836-3.629-2.6-3.629-2.6a3.416,3.416,0,0,0,.4-2.854,14.194,14.194,0,0,0-2.482-4L231,159l3,5s-1.176,4.447-2.732,3.829a14.334,14.334,0,0,1-3.3-2.514s-3.582-2.928-1.407,3c2.223,6.052,10.8,12.078,10.8,12.078C236.872,180.4,222.279,174.1,222,167c-0.278-7.074,2-5,2-5l-0.574-3.311S222.54,160.859,221,161s-3.733-1.745-3.733-1.745a7.731,7.731,0,0,0-1.213,4.337A19.329,19.329,0,0,0,218,170l-5-3c-2.732-.178-5.786-2.114-3.357,3.771a43.875,43.875,0,0,0,6.247,10.08S205.4,177.659,204,171c-1.112-5.306,4-6,4-6l0.646-4.953s-3.4,2.747-5.646,2.953a4.922,4.922,0,0,1-4.207-2.049l0.452,9.819a6.787,6.787,0,0,0-3.175-2.152,7.33,7.33,0,0,0-5.048.09s-1.392-4.834-1.635-1.087a31.892,31.892,0,0,0,.874,9.315,4.139,4.139,0,0,1-2.9-.953c-0.649-.515-0.36-1.549-0.838-2.281a3.689,3.689,0,0,0-1.657-1.047,66.946,66.946,0,0,1-4.482,12.067c-2.9,5.736-7.069,10.782-9,17.1-3.674,12.032-1.549,20.053-1.549,20.053s2.81,11.148,2.568,17.395c-0.3,7.711-3.662,10.832-3.662,10.832a28.337,28.337,0,0,0,2-11.879c-0.387-8.726-3.406-19.676-3.406-19.676a59.884,59.884,0,0,1,1.987-15.4c1.883-6.261,5.4-12.367,7.76-17.007,2.189-4.307,3.28-7.357,3.559-7.928a29.276,29.276,0,0,0,2.544-10.126s-3.462-2.85-7.432.565c-2.3,1.977-3.134,7.84-4.9,10.926-1.456,2.546-3.334,2.9-18.562,4.929-5.311.708-11.685,0.843-15.684,2.365-1.989.758-1.754,2.571-2.459,3.7a15.45,15.45,0,0,0-2.041,4.846,161.291,161.291,0,0,0,9.6,19.206c2.088,3.369,6.781,9.092,7.905,11.125,2.114,3.823-.4,2.376-0.4,2.376a80.692,80.692,0,0,1-9.563-12.172,143.37,143.37,0,0,1-9.18-18.065,35.579,35.579,0,0,0-4.919,7.41c-1.083,2.155-2.3,4.429-3.679,7.316-1.042,2.184-2.434,4.88-2.442,7.221,0,1.754,1.543,4.112,2.095,5.705,1.235,3.567,2.095,5.7,2.095,5.7s-2.3.165-3.735-3.234c-3.458-8.182-3.193-8.254-.31-16.289,1.879-5.236,8.308-17.055,8.4-17.161l-1.78-4.849a21.228,21.228,0,0,0-3.229-5.324s-9.372,14.123-13.917,24.511c-3.158,7.217-2,11.879-2,11.879s-1.155,1.241-2.5-3.328c-0.489-1.669.41-4.46-.036-7.033A23.6,23.6,0,0,0,102,203.581a8.678,8.678,0,0,0-2.9-.953,12.673,12.673,0,0,0-3.716.283,41.67,41.67,0,0,0-3.662,10.832c-1.288,5.923.139,21.413-1.094,28.227-1.854,10.25-6.139,11.021-6.139,11.021A75.223,75.223,0,0,1,78.613,233.5c-1.094-8.06-.535-16.008-0.56-22.135-0.018-4.572-.422-8.28-0.422-8.28a39.8,39.8,0,0,0-5.738,8.645c-2.466,4.841-4.764,12.021-6.941,15.773a9.057,9.057,0,0,1-3.7,3.8A13.012,13.012,0,0,1,57.064,219.9c1.749-11.425,10.184-27.745,10.184-27.745a30.052,30.052,0,0,1,2.022-8.363c1.248-2.652,2.878-2.564,2.878-2.564a17.76,17.76,0,0,0,2.86-6.08c0.906-3.607.752-8.356,4.9-10.927,5.313-3.293,13.586-3.257,19.563-3.627,3.832-.237,6.85-0.726,6.85-0.726l4.518-5.035c0.062-.033-0.986-2.412-4.523-3.843a29.62,29.62,0,0,0-10.378-2.06c-4.567.046-15.943,2.079-23.1,6.447-3.074,1.876-4.091,5.443-6.157,7.5a50.847,50.847,0,0,1-7.815,6.457l10.256-13.679-2.9-.952a9,9,0,0,1-3.279,4.94c-3.2,2.446-8.653,4.176-8.653,4.176a48.009,48.009,0,0,0,7-5.223,1.913,1.913,0,0,0,.4-2.376s-10.84,5.7-17.29,12.069C38.126,174.49,27,190,27,190s5.326-13.875,15-23,15.833-13,23-16,8.727-2.7,15-6c5.4-2.839,8.872-4.918,8.872-4.918a192.706,192.706,0,0,0-20.22,3.883c-8.789,2.259-20.748,6-24.337,6.541C24.566,153.457,22,164.157,22,164.157s3.648-12.089,21.46-15.1c9.552-1.616,18.536-5.08,28.07-7.654,8.212-2.218,25.994-5.5,25.994-5.5s-10.114-.03-18.179-0.963a68.027,68.027,0,0,1-12.405-2.575s10.463,0.377,17.761-.177a21.163,21.163,0,0,0,7.013-1.706L90.876,128.2a8.5,8.5,0,0,0,4.135.858c4.755,0.126,13.152-.43,21.476-0.46,7.257-.025,14.189-0.961,21.477-0.46a171.282,171.282,0,0,1,33.9,5.632,88.584,88.584,0,0,1,14.044.1,69.7,69.7,0,0,1,12.405,2.575s27.311-6.154,50.4,2.031c13.559,4.806,24.786,14.81,33.571,22.074C294.973,171.046,301.384,171.889,299.739,180.339Z"/>
</svg>
